<?xml version="1.0" encoding="UTF-8"?>
<!DOCTYPE svg PUBLIC "-//W3C//DTD SVG 1.0//EN" "http://www.w3.org/TR/2001/REC-SVG-20010904/DTD/svg10.dtd">
<!-- Creator: CorelDRAW 2021 (64 Bit) -->
<svg xmlns="http://www.w3.org/2000/svg" xml:space="preserve" width="297mm" height="100mm" version="1.0" style="shape-rendering:geometricPrecision; text-rendering:geometricPrecision; image-rendering:optimizeQuality; fill-rule:evenodd; clip-rule:evenodd"
viewBox="0 0 29700 10000"
 xmlns:xlink="http://www.w3.org/1999/xlink"
 xmlns:xodm="http://www.corel.com/coreldraw/odm/2003">
 <defs>
  <style type="text/css">
   <![CDATA[
    .fil0 {fill:#373435}
    .fil1 {fill:#00A859}
    .fil3 {fill:#373435;fill-rule:nonzero}
    .fil2 {fill:#00A859;fill-rule:nonzero}
   ]]>
  </style>
 </defs>
 <g id="Camada_x0020_1">
  <metadata id="CorelCorpID_0Corel-Layer"/>
  <g id="_2537438000000">
   <path class="fil0" d="M2317.04 4393.01c-90.85,-103.44 -126.5,-131.93 -212.79,-273.49 -239.27,-392.56 -270.72,-843.92 -259.24,-1304.48 -266.25,404.15 -403.94,1161.79 -368.57,1745.04 38.02,626.86 248.02,1165.16 525.2,1594.72 1461.25,2264.62 4794.4,1965.82 5874.56,-391.37 282.57,-616.65 390.22,-1306.22 254.5,-2058.29 -106.85,-592.01 -496.94,-1367.56 -820.13,-1622.29 126.21,507.54 215.17,846.16 67.7,1409.54 -598.17,2285.09 -3846.31,2339.46 -4509.76,114.79 -202.47,-678.9 -96.19,-1338.57 251.93,-1932.32 110.48,-188.42 263.79,-298.34 357.47,-448.84 -731.81,269.95 -1332.92,1295.61 -1330.02,2192.75 1.4,435.12 80.8,606.54 169.15,974.24z"/>
   <path class="fil1" d="M7134.89 2690.01c-176.6,632.85 -405.96,1031.52 -1018.07,1316.43 -1261.33,587.07 -2716.62,-613.66 -2360.59,-1979.05 160.56,-615.76 498.24,-922.01 1013.67,-1174.97 7.8,-3.83 15.7,-7.06 23.49,-11.22l94.16 -61.94c-1890.19,203.2 -2258.7,2424.81 -1322.79,3369.47 72.53,73.21 119.67,115.56 192.26,188.1 502.77,502.45 1535.49,665.87 2273.77,280.87 706.19,-368.27 1159.13,-1092.42 1104.1,-1927.69z"/>
   <path class="fil0" d="M4276.91 3083.87c835.07,1561.12 3074.21,508.06 2611.09,-930.7 -137.38,238.76 -85.1,284.21 -376.52,630.51 -116.91,138.91 -371.2,333.32 -608.11,437.24 -662.51,290.62 -1098.95,128 -1626.46,-137.05z"/>
  </g>
  <g id="_2537438001392">
   <path class="fil2" d="M13854.82 4519.72l-1218.07 0c-4.17,-142.75 -56.27,-245.91 -157.34,-310.51 -101.08,-63.56 -263.62,-95.86 -489.73,-95.86l-305.3 0c-279.26,0 -462.64,51.05 -552.25,152.13 -89.61,102.11 -134.42,348.02 -134.42,736.68l0 748.14c0,384.49 44.81,628.31 134.42,730.43 89.61,101.07 272.99,152.13 552.25,152.13l338.64 0c239.65,0 407.41,-33.35 502.23,-101.08 94.82,-66.68 141.71,-182.34 141.71,-346.98l0 -177.13 -696.04 0 0 -850.26 1883.9 0 0 777.32c0,613.73 -134.42,1062.82 -404.29,1344.15 -269.87,282.38 -696.04,423.05 -1277.47,423.05l-827.33 0c-512.65,0 -900.27,-162.55 -1164.93,-486.61 -263.62,-325.1 -395.95,-804.41 -395.95,-1436.89l0 -690.83c0,-708.55 139.62,-1226.41 417.83,-1553.59 278.21,-326.14 717.92,-489.73 1320.19,-489.73l661.66 0c488.68,0 888.8,121.91 1201.4,364.69 312.59,243.82 468.89,549.12 468.89,917.98l0 192.77z"/>
   <path class="fil3" d="M15023.92 5726.33l1819.29 0 0 -125.03c0,-301.14 -54.18,-505.37 -161.5,-613.73 -108.37,-107.32 -321.97,-161.51 -640.82,-161.51l-222.98 0c-317.81,0 -529.33,54.19 -635.61,161.51 -105.24,108.36 -158.38,312.59 -158.38,613.73l0 125.03zm800.24 1963.09c-480.35,0 -815.87,-93.78 -1007.6,-281.33 -190.68,-186.52 -286.54,-515.78 -286.54,-986.76l0 -761.68c0,-473.06 94.82,-802.33 285.5,-989.88 189.64,-187.56 524.12,-281.34 1002.39,-281.34l222.98 0c480.35,0 816.91,93.78 1008.64,281.34 191.72,187.55 287.58,516.82 287.58,989.88l0 485.56 -2313.19 3.12c-2.09,32.31 -3.13,68.78 -4.17,107.33 -1.04,39.59 -2.08,94.82 -2.08,165.67 0,332.4 53.14,554.34 159.42,666.87 105.24,113.58 318.84,169.84 640.82,169.84l222.98 0c286.54,0 485.56,-41.68 598.1,-123.99 111.49,-82.32 177.13,-226.11 194.85,-432.42l497.02 0c-23.96,349.06 -136.5,600.18 -336.56,755.43 -200.06,155.26 -515.78,232.36 -948.2,232.36l-221.94 0zm2250.67 -1000.3l481.4 0 0 72.94c0,197.98 61.47,334.48 183.39,409.5 121.91,73.98 366.77,111.49 735.63,111.49 412.63,0 666.87,-37.51 762.73,-113.57 95.87,-75.03 143.8,-220.9 143.8,-436.59 0,-209.44 -39.6,-350.11 -117.75,-419.92 -78.15,-70.86 -274.04,-113.58 -586.63,-130.25 -116.7,-6.25 -273,-12.5 -469.93,-18.76 -431.38,-11.46 -687.71,-41.67 -768.99,-87.52 -121.91,-67.73 -209.43,-159.42 -260.49,-275.08 -52.1,-115.66 -78.15,-282.38 -78.15,-500.15 0,-356.36 90.65,-597.06 271.96,-723.14 180.26,-126.08 579.34,-189.64 1196.19,-189.64 478.27,0 801.28,60.44 971.13,180.26 169.84,119.83 255.28,331.35 255.28,632.48l-475.14 0 0 -30.21c0,-142.75 -61.48,-240.7 -184.43,-294.88 -124,-54.19 -368.86,-81.28 -734.6,-81.28 -355.31,0 -580.38,32.3 -678.33,97.95 -97.94,64.6 -146.92,201.1 -146.92,408.46 0,126.07 9.38,213.6 27.09,264.66 18.76,51.05 51.06,89.61 97.95,115.66 95.86,51.05 307.38,80.23 635.61,88.57 83.36,2.08 147.96,4.16 192.76,6.25 268.84,10.42 479.32,23.96 632.49,41.68 153.17,16.67 261.53,40.63 327.18,71.89 142.75,64.61 243.82,158.38 304.26,280.3 59.39,122.95 89.61,300.09 89.61,532.45 0,235.49 -29.18,415.75 -88.57,537.66 -59.39,121.91 -164.63,230.28 -317.81,324.06 -68.77,44.8 -182.34,77.1 -338.64,95.86 -157.34,19.8 -375.11,29.17 -654.36,29.17 -569.97,0 -947.16,-65.64 -1131.59,-196.93 -184.43,-132.33 -276.13,-370.95 -276.13,-717.93l0 -85.44zm5945.54 -374.07l0 -549.12c0,-405.33 -51.05,-662.7 -154.21,-773.15 -103.15,-111.49 -318.84,-166.72 -648.11,-166.72l-222.98 0c-328.23,0 -541.83,55.23 -642.91,164.64 -101.07,110.44 -151.08,368.86 -151.08,775.23l0 549.12c0,408.46 51.05,667.91 152.13,778.36 102.11,109.41 315.72,164.63 641.86,164.63l222.98 0c327.18,0 542.87,-56.26 647.07,-167.76 103.16,-111.49 155.25,-369.9 155.25,-775.23zm-1019.05 1374.37c-480.35,0 -815.87,-93.78 -1007.6,-281.33 -190.68,-186.52 -286.54,-515.78 -286.54,-985.71l0 -763.78c0,-472.01 94.82,-801.28 285.5,-988.83 189.64,-187.56 524.12,-281.34 1002.39,-281.34l222.98 0c480.35,0 816.91,93.78 1008.64,281.34 191.72,187.55 287.58,516.82 287.58,988.83l0 763.78c0,472.01 -94.82,801.28 -285.5,987.79 -190.68,186.52 -526.2,279.25 -1005.51,279.25l-221.94 0zm2019.35 -2850.85l0 -406.38 450.14 0c0,-23.96 0,-52.1 -1.04,-84.4 -1.05,-31.26 -2.09,-75.02 -2.09,-132.33 0,-409.5 71.9,-697.08 214.65,-864.84 143.79,-166.72 391.78,-250.08 746.06,-250.08 91.69,0 181.3,2.09 267.79,6.26 87.52,4.16 175.05,10.41 262.58,17.71l0 432.42c-26.05,-2.08 -62.52,-4.17 -109.41,-6.25 -140.67,-4.17 -237.57,-6.25 -290.71,-6.25 -245.91,0 -409.5,37.51 -490.78,111.49 -81.27,75.02 -121.91,260.49 -121.91,558.5l0 217.77 1012.81 0 0 406.38 -1012.81 0 0 2807.09 -475.14 0 0 -2807.09 -450.14 0zm2131.89 0l0 -406.38 393.87 0 0 -725.21 475.14 0 0 725.21 1575.48 0 0 406.38 -1575.48 0 0 1769.28c0,252.16 41.68,424.08 124,514.74 82.32,90.65 239.65,135.45 470.97,135.45 230.28,0 385.54,-43.76 465.77,-131.29 80.23,-87.52 120.87,-260.49 120.87,-518.9l0 -93.78 482.44 0 0 27.09c0,452.22 -75.03,756.48 -224.03,912.78 -150.04,157.33 -460.55,235.48 -932.57,235.48 -367.82,0 -624.15,-83.36 -767.94,-249.03 -142.75,-165.67 -214.65,-465.77 -214.65,-899.23l0 -1702.59 -393.87 0z"/>
  </g>
 </g>
</svg>
