<?xml version="1.0" encoding="UTF-8"?>
<!DOCTYPE svg PUBLIC "-//W3C//DTD SVG 1.1//EN" "http://www.w3.org/Graphics/SVG/1.1/DTD/svg11.dtd">
<!-- Creator: CorelDRAW 2021 (64 Bit) -->
<svg xmlns="http://www.w3.org/2000/svg" xml:space="preserve" width="282.14mm" height="152.012mm" version="1.1" style="shape-rendering:geometricPrecision; text-rendering:geometricPrecision; image-rendering:optimizeQuality; fill-rule:evenodd; clip-rule:evenodd"
viewBox="0 0 28214 15201.2"
 xmlns:xlink="http://www.w3.org/1999/xlink"
 xmlns:xodm="http://www.corel.com/coreldraw/odm/2003">
 <defs>
  <style type="text/css">
   <![CDATA[
    .fil0 {fill:black}
    .fil1 {fill:#0B8647}
    .fil2 {fill:#FAA419}
   ]]>
  </style>
   <clipPath id="id0">
    <rect x="1762.61" y="4154.67" width="10854.26" height="5181.59"/>
   </clipPath>
   <clipPath id="id1">
    <rect x="19127.73" y="4061.54" width="7340.6" height="5274.72"/>
   </clipPath>
   <clipPath id="id2">
    <rect x="13438.14" y="10182.93" width="13021.72" height="1447.8"/>
   </clipPath>
 </defs>
 <g id="Camada_x0020_1">
  <metadata id="CorelCorpID_0Corel-Layer"/>
  <path class="fil0" d="M13996.59 6857.99c-67.82,-77.21 -94.44,-98.48 -158.85,-204.16 -178.62,-293.04 -202.09,-629.98 -193.52,-973.79 -198.76,301.7 -301.54,867.28 -275.14,1302.67 28.38,467.95 185.15,869.79 392.06,1190.45 1090.82,1690.53 3579,1467.48 4385.34,-292.15 210.94,-460.33 291.3,-975.09 189.98,-1536.51 -79.76,-441.93 -370.96,-1020.88 -612.22,-1211.03 94.21,378.88 160.62,631.65 50.54,1052.21 -446.54,1705.82 -2871.26,1746.4 -3366.53,85.7 -151.14,-506.8 -71.8,-999.25 188.07,-1442.47 82.47,-140.66 196.92,-222.71 266.85,-335.07 -546.29,201.52 -995.02,967.17 -992.86,1636.89 1.05,324.81 60.32,452.78 126.28,727.26z"/>
  <path class="fil1" d="M17593.09 5586.71c-131.82,472.42 -303.04,770.03 -759.98,982.71 -941.58,438.25 -2027.95,-458.09 -1762.17,-1477.35 119.86,-459.66 371.93,-688.28 756.7,-877.12 5.82,-2.85 11.72,-5.26 17.54,-8.37l70.28 -46.24c-1411.02,151.69 -1686.11,1810.11 -987.45,2515.3 54.14,54.65 89.33,86.26 143.52,140.42 375.31,375.07 1146.24,497.06 1697.36,209.67 527.17,-274.92 865.28,-815.49 824.2,-1439.02z"/>
  <path class="fil2" d="M15459.63 5880.72c623.37,1165.38 2294.88,379.27 1949.16,-694.76 -102.55,178.24 -63.52,212.17 -281.07,470.67 -87.27,103.7 -277.1,248.82 -453.95,326.4 -494.56,216.95 -820.36,95.56 -1214.14,-102.31z"/>
  <g style="clip-path:url(#id0)">
   <image x="1762.61" y="4154.67" width="10854.26" height="5181.59" xlink:href="logo_wcode_Images\logo_wcode_ImgID1.png"/>
  </g>
  <g style="clip-path:url(#id1)">
   <image x="19127.73" y="4061.54" width="7340.6" height="5274.72" xlink:href="logo_wcode_Images\logo_wcode_ImgID2.png"/>
  </g>
  <g style="clip-path:url(#id2)">
   <image x="13438.14" y="10182.93" width="13021.72" height="1447.8" xlink:href="logo_wcode_Images\logo_wcode_ImgID3.png"/>
  </g>
 </g>
</svg>
